<svg height="512pt" viewBox="-82 0 512 512.00073" width="512pt" xmlns="http://www.w3.org/2000/svg"><path d="m83.910156 470.179688c-12.398437 0-24.140625-7.410157-29.058594-19.621094-20.234374-50.191406-10.648437-83.308594-2.945312-109.914063 4.894531-16.902343 9.121094-31.496093 6.59375-51.6875-3.1875-25.472656-16.644531-56.949219-41.144531-96.21875-9.15625-14.675781-4.683594-33.996093 9.996093-43.15625 14.675782-9.15625 33.996094-4.679687 43.152344 9.996094 29.820313 47.800781 45.757813 86.441406 50.15625 121.597656 4.128906 32.996094-2.917968 57.332031-8.578125 76.886719-6.789062 23.453125-11.273437 38.945312.871094 69.078125 6.464844 16.042969-1.296875 34.292969-17.339844 40.757813-3.839843 1.550781-7.804687 2.28125-11.703125 2.28125zm0 0" fill="#3cb767"/><path d="m221.796875 449.148438c-12.894531 0-24.96875-8.023438-29.523437-20.867188-27.511719-77.621094-9.925782-123.113281 4.203124-159.664062 11.949219-30.910157 19.84375-51.328126 3.480469-91.429688-6.535156-16.015625 1.152344-34.296875 17.167969-40.832031 16.023438-6.535157 34.300781 1.152343 40.835938 17.167969 25.761718 63.140624 10.453124 102.742187-3.054688 137.679687-12.527344 32.414063-23.34375 60.402344-3.585938 116.152344 5.78125 16.304687-2.753906 34.207031-19.058593 39.984375-3.457031 1.226562-6.992188 1.808594-10.464844 1.808594zm0 0" fill="#3cb767"/><path d="m175.929688 449.148438c-4.207032 0-8.488282-.855469-12.589844-2.660157-15.835938-6.960937-23.027344-25.445312-16.0625-41.28125 24.242187-55.132812 6.949218-80.445312-19.222656-118.761719-18.164063-26.585937-38.753907-56.722656-42.332032-98.597656-4.421875-51.757812 18.367188-82.882812 40.40625-112.980468 12.132813-16.574219 24.679688-33.710938 35.660156-56.925782 7.394532-15.640625 26.070313-22.324218 41.703126-14.925781 15.640624 7.394531 22.324218 26.066406 14.925781 41.703125-13.53125 28.625-29.175781 49.988281-41.746094 67.15625-21.464844 29.316406-30.855469 43.425781-28.53125 70.640625 2.175781 25.464844 15.832031 45.453125 31.640625 68.597656 28.105469 41.140625 63.082031 92.34375 24.839844 179.3125-5.160156 11.734375-16.644532 18.722657-28.691406 18.722657zm0 0" fill="#8ee2cf"/><path d="m126.941406 462.664062c-3.542968 0-7.148437-.605468-10.671875-1.882812-16.261719-5.894531-24.667969-23.855469-18.777343-40.121094 12.464843-34.386718 5.671874-50.707031-3.730469-73.300781-7.097657-17.058594-15.929688-38.285156-14.269531-66.050781 1.738281-29.070313 14.375-60.039063 39.773437-97.457032 9.714844-14.3125 29.195313-18.039062 43.507813-8.328124 14.3125 9.714843 18.039062 29.191406 8.324218 43.507812-18.539062 27.320312-28.050781 48.914062-29.074218 66.015625-.796876 13.320313 3.554687 23.777344 9.578124 38.246094 10.785157 25.917969 25.550782 61.414062 4.789063 118.710937-4.617187 12.738282-16.640625 20.660156-29.449219 20.660156zm0 0" fill="#6fce91"/><path d="m231.929688 468.71875c-14.730469 0-27.855469-10.433594-30.730469-25.4375-13.390625-69.933594 15.058593-112.832031 40.15625-150.679688 30.46875-45.949218 59.253906-89.351562 32.730469-194.46875-4.234376-16.773437 5.933593-33.804687 22.707031-38.035156 16.777343-4.234375 33.800781 5.9375 38.03125 22.707032 33.300781 131.980468-8.042969 194.324218-41.261719 244.417968-22.886719 34.511719-39.417969 59.445313-30.835938 104.277344 3.253907 16.992188-7.882812 33.402344-24.871093 36.65625-1.988281.378906-3.972657.5625-5.925781.5625zm0 0" fill="#6fce91"/><path d="m12.082031 482.78125-9.890625-23.828125c-5.875-14.152344.457032-30.414063 14.351563-36.867187l55.027343-25.554688c15.796876-7.339844 33.738282-8.613281 50.414063-3.585938l44.230469 13.335938c18.792968 5.667969 28.113281 26.753906 19.652344 44.46875l-11.839844 24.792969c-11.050782 23.136719-35.585938 36.6875-61.050782 33.722656l-77.8125-9.054687c-10.28125-1.199219-19.113281-7.867188-23.082031-17.429688zm0 0" fill="#e1b89a"/><path d="m12.082031 482.78125c3.96875 9.5625 12.800781 16.230469 23.082031 17.425781l56.675782 6.597657c-37.800782-22.84375-43.644532-73.976563-27.058594-107.121094l-48.238281 22.402344c-13.894531 6.453124-20.226563 22.714843-14.355469 36.867187zm0 0" fill="#d2996f"/><path d="m157.992188 489.261719-9.328126-21.226563c-5.574218-12.683594-1.390624-27.539062 9.988282-35.445312l41.128906-28.589844c12.964844-9.011719 29.410156-11.421875 44.417969-6.503906l51.578125 16.902344c15.046875 4.929687 23.347656 21.027343 18.636718 36.148437l-9.855468 31.632813c-3.417969 10.964843-12.988282 18.878906-24.398438 20.167968l-83.054687 9.40625c-16.558594 1.878906-32.40625-7.238281-39.113281-22.492187zm0 0" fill="#e1b89a"/><g fill="#d2996f"><path d="m207.90625 399.421875c-2.820312 1.265625-5.542969 2.785156-8.125 4.582031l-41.128906 28.585938c-11.378906 7.90625-15.5625 22.761718-9.988282 35.445312l9.328126 21.226563c6.703124 15.253906 22.554687 24.371093 39.109374 22.496093l57.621094-6.527343c-50.246094-19.664063-56.335937-79.347657-46.816406-105.808594zm0 0"/><path d="m102.085938 413.976562c0 4.1875-3.394532 7.582032-7.582032 7.582032-4.183594 0-7.578125-3.394532-7.578125-7.582032s3.394531-7.578124 7.578125-7.578124c4.1875 0 7.582032 3.390624 7.582032 7.578124zm0 0"/><path d="m280.023438 477.761719c0 4.183593-3.390626 7.578125-7.578126 7.578125s-7.582031-3.394532-7.582031-7.578125c0-4.1875 3.394531-7.582031 7.582031-7.582031s7.578126 3.394531 7.578126 7.582031zm0 0"/></g><path d="m45.921875 462.664062c0 4.1875-3.394531 7.578126-7.582031 7.578126-4.183594 0-7.578125-3.390626-7.578125-7.578126s3.394531-7.582031 7.578125-7.582031c4.1875 0 7.582031 3.394531 7.582031 7.582031zm0 0" fill="#e1b89a"/><path d="m200.46875 455.710938c0 4.1875-3.394531 7.578124-7.582031 7.578124s-7.578125-3.390624-7.578125-7.578124 3.390625-7.582032 7.578125-7.582032 7.582031 3.394532 7.582031 7.582032zm0 0" fill="#e1b89a"/><path d="m129.476562 477.761719c0 4.183593-3.390624 7.578125-7.578124 7.578125s-7.582032-3.394532-7.582032-7.578125c0-4.1875 3.394532-7.582031 7.582032-7.582031s7.578124 3.394531 7.578124 7.582031zm0 0" fill="#d2996f"/><path d="m254.722656 346.691406c-1.917968 0-3.839844-.734375-5.304687-2.199218-2.929688-2.925782-2.929688-7.675782 0-10.605469l8.5625-8.5625c2.929687-2.929688 7.679687-2.929688 10.609375 0 2.929687 2.929687 2.929687 7.675781 0 10.605469l-8.566406 8.5625c-1.460938 1.464843-3.382813 2.199218-5.300782 2.199218zm0 0" fill="#3cb767"/><path d="m124.683594 136.671875c-1.917969 0-3.839844-.734375-5.300782-2.199219l-4.789062-4.785156c-2.929688-2.929688-2.929688-7.679688 0-10.609375 2.929688-2.925781 7.675781-2.925781 10.605469 0l4.789062 4.789063c2.925781 2.929687 2.925781 7.679687 0 10.605468-1.464843 1.464844-3.386719 2.199219-5.304687 2.199219zm0 0" fill="#6fce91"/><path d="m116.710938 326.285156c-1.917969 0-3.839844-.734375-5.300782-2.199218l-4.789062-4.789063c-2.929688-2.925781-2.929688-7.675781 0-10.605469 2.929687-2.925781 7.679687-2.925781 10.605468 0l4.789063 4.789063c2.929687 2.929687 2.929687 7.679687 0 10.605469-1.464844 1.464843-3.382813 2.199218-5.304687 2.199218zm0 0" fill="#3cb767"/></svg>