<svg enable-background="new 0 0 60 60" height="512" viewBox="0 0 60 60" width="512" xmlns="http://www.w3.org/2000/svg"><path d="m58.121 53.879-14.121-14.122c-1.24 1.578-2.664 3.003-4.243 4.243l14.121 14.121c1.172 1.172 3.071 1.172 4.243 0s1.172-3.071 0-4.242z" fill="#556080"/><circle cx="26" cy="26" fill="#7383bf" r="25"/><circle cx="26" cy="26" fill="#fff" r="19"/><circle cx="36" cy="25" fill="#25ae88" r="4"/><circle cx="19" cy="17" fill="#75348b" r="3"/><g fill="#4d007e"><path d="m26 52c-14.336 0-26-11.664-26-26s11.664-26 26-26 26 11.664 26 26-11.664 26-26 26zm0-50c-13.234 0-24 10.767-24 24s10.766 24 24 24 24-10.767 24-24-10.766-24-24-24z"/><path d="m56 60c-1.068 0-2.073-.416-2.829-1.172l-12.454-12.454c-.202-.202-.308-.481-.291-.767s.156-.55.381-.727c1.514-1.188 2.884-2.56 4.074-4.074.177-.225.441-.363.727-.38.287-.017.565.089.767.291l12.454 12.454c.755.756 1.171 1.761 1.171 2.829s-.416 2.073-1.172 2.828c-.755.756-1.76 1.172-2.828 1.172zm-13.089-14.26 11.674 11.674c.756.756 2.073.756 2.828 0 .379-.378.587-.88.587-1.414s-.208-1.037-.586-1.415l-11.674-11.674c-.869 1.013-1.816 1.96-2.829 2.829z"/><path d="m26 46c-11.028 0-20-8.972-20-20s8.972-20 20-20 20 8.972 20 20-8.972 20-20 20zm0-38c-9.925 0-18 8.075-18 18s8.075 18 18 18 18-8.075 18-18-8.075-18-18-18z"/><path d="m36 30c-2.757 0-5-2.243-5-5s2.243-5 5-5 5 2.243 5 5-2.243 5-5 5zm0-8c-1.654 0-3 1.346-3 3s1.346 3 3 3 3-1.346 3-3-1.346-3-3-3z"/><path d="m17 28h-4c-.552 0-1-.448-1-1s.448-1 1-1h4c.552 0 1 .448 1 1s-.448 1-1 1z"/><path d="m32 40c-.552 0-1-.448-1-1s.448-1 1-1 1-.449 1-1c0-.552.448-1 1-1s1 .448 1 1c0 1.654-1.346 3-3 3z"/><path d="m26 32c-.552 0-1-.448-1-1 0-1.654-1.346-3-3-3-.552 0-1-.448-1-1s.448-1 1-1c2.757 0 5 2.243 5 5 0 .552-.448 1-1 1z"/><path d="m26 37h-6c-.552 0-1-.448-1-1s.448-1 1-1h6c.552 0 1 .448 1 1s-.448 1-1 1z"/><path d="m19 21c-2.206 0-4-1.794-4-4s1.794-4 4-4 4 1.794 4 4-1.794 4-4 4zm0-6c-1.103 0-2 .897-2 2s.897 2 2 2 2-.897 2-2-.897-2-2-2z"/><path d="m28 20c-.552 0-1-.448-1-1 0-1.654 1.346-3 3-3 .552 0 1 .448 1 1s-.448 1-1 1-1 .449-1 1c0 .552-.448 1-1 1z"/></g></svg>