<svg id="Capa_1" enable-background="new 0 0 512.464 512.464" height="512" viewBox="0 0 512.464 512.464" width="512" xmlns="http://www.w3.org/2000/svg"><path d="m501.31 495.993-2.877 2.877c-14.872 14.872-38.984 14.872-53.856 0l-123.391-123.391 56.733-56.733 123.391 123.39c14.872 14.872 14.872 38.985 0 53.857z" fill="#685e68"/><path d="m501.31 442.136-123.39-123.39-16 16 112.39 112.39c14.872 14.872 14.872 38.984 0 53.856l-2.877 2.877c-2.145 2.145-4.488 3.971-6.962 5.497 11.934 2.232 24.729-1.264 33.962-10.497l2.877-2.877c14.872-14.871 14.872-38.984 0-53.856z" fill="#554e56"/><circle cx="213.034" cy="215.475" fill="#d5f3f7" r="191.966"/><path d="m300.094 44.344c26.513 32.918 42.393 74.76 42.393 120.317 0 106.02-85.946 191.966-191.966 191.966-31.342 0-60.928-7.515-87.059-20.835 35.187 43.687 89.11 71.648 149.572 71.648 106.02 0 191.966-85.946 191.966-191.965 0-74.678-42.644-139.393-104.906-171.131z" fill="#a7e8f1"/><path d="m213.034 428.509c-117.467 0-213.034-95.567-213.034-213.035 0-117.467 95.567-213.033 213.034-213.033s213.034 95.567 213.034 213.034-95.566 213.034-213.034 213.034zm0-383.932c-94.233 0-170.898 76.664-170.898 170.897s76.664 170.898 170.898 170.898c94.233 0 170.897-76.664 170.897-170.898 0-94.232-76.664-170.897-170.897-170.897z" fill="#bbb0ba"/><path d="m299.408 20.755c63.056 37.033 105.486 105.563 105.486 183.826 0 117.468-95.567 213.034-213.034 213.034-30.732 0-59.959-6.552-86.374-18.315 31.587 18.551 68.344 29.208 107.549 29.208 117.467 0 213.034-95.567 213.034-213.034-.001-86.735-52.11-161.519-126.661-194.719z" fill="#ab9faa"/><path d="m171.323 220.164c-9.407 0-18.506-5.052-23.249-13.928-6.855-12.828-2.014-28.784 10.814-35.639 5.765-3.081 9.346-9.042 9.346-15.558s-3.581-12.476-9.346-15.558c-12.828-6.855-17.669-22.812-10.814-35.639 6.855-12.828 22.813-17.668 35.639-10.814 22.941 12.26 37.192 36.021 37.192 62.011s-14.251 49.751-37.192 62.011c-3.951 2.112-8.202 3.114-12.39 3.114z" fill="#60b8ff"/><path d="m202.731 107.864c4.239 9.12 6.543 19.198 6.543 29.639 0 25.99-14.251 49.751-37.192 62.011-3.951 2.112-8.202 3.114-12.39 3.114-5.081 0-10.065-1.485-14.328-4.239.471 2.675 1.361 5.322 2.711 7.848 4.743 8.876 13.843 13.928 23.249 13.928 4.188 0 8.439-1.002 12.39-3.114 22.941-12.26 37.192-36.021 37.192-62.011-.001-17.751-6.652-34.459-18.175-47.176z" fill="#22a7ff"/><path d="m307.921 203.896c0-15.361-12.939-27.7-28.513-26.711-13.129.833-23.873 11.376-24.931 24.489-.563 6.978 1.554 13.45 5.43 18.501 1.163 1.515 1.163 3.611 0 5.126-3.877 5.051-5.994 11.523-5.431 18.501 1.058 13.113 11.802 23.656 24.931 24.489 15.574.988 28.513-11.35 28.513-26.711 0-6.114-2.051-11.748-5.502-16.254-1.175-1.534-1.175-3.641 0-5.175 3.452-4.507 5.503-10.141 5.503-16.255z" fill="#ff94d4"/><path d="m302.419 220.151c3.45-4.506 5.502-10.14 5.502-16.254 0-11.969-7.857-22.101-18.694-25.526 2.111 3.827 3.317 8.223 3.317 12.903 0 6.114-2.051 11.748-5.502 16.254-1.175 1.534-1.175 3.641 0 5.175 3.451 4.506 5.502 10.14 5.502 16.254 0 15.361-12.939 27.7-28.513 26.711-2.181-.138-4.286-.567-6.302-1.209 4.316 7.781 12.391 13.242 21.679 13.831 15.574.988 28.513-11.351 28.513-26.711 0-6.114-2.051-11.748-5.502-16.254-1.174-1.533-1.174-3.64 0-5.174z" fill="#ff73c6"/><path d="m226.308 327.089c-1.631 0-3.289-.218-4.938-.675-17.111-4.747-23.764-16.856-27.738-24.091-3.145-5.724-3.47-5.814-5.279-6.316-1.811-.502-2.136-.591-7.779 2.694-7.134 4.154-19.076 11.106-36.185 6.359-17.11-4.746-23.762-16.856-27.737-24.091-3.143-5.723-3.469-5.813-5.276-6.314-9.811-2.722-15.558-12.881-12.837-22.692 2.722-9.811 12.882-15.559 22.692-12.837 17.11 4.747 23.762 16.856 27.736 24.092 3.143 5.722 3.469 5.812 5.276 6.314 1.81.502 2.135.593 7.779-2.694 7.134-4.153 19.078-11.104 36.185-6.359 17.111 4.747 23.764 16.856 27.738 24.091 3.145 5.724 3.47 5.814 5.279 6.316 9.811 2.721 15.558 12.881 12.837 22.692-2.263 8.161-9.676 13.511-17.753 13.511z" fill="#60b8ff"/><path d="m231.225 290.885c-1.809-.502-2.135-.592-5.279-6.316-3.975-7.235-10.627-19.345-27.738-24.091-8.556-2.373-15.82-1.821-21.836-.156.202.053.401.1.604.156 17.111 4.747 23.764 16.856 27.738 24.091 3.145 5.724 3.47 5.814 5.279 6.316 9.811 2.721 15.558 12.881 12.837 22.692-1.258 4.536-4.11 8.199-7.779 10.562 1.933.869 4.03 1.639 6.319 2.274 1.649.457 3.307.675 4.938.675 8.077 0 15.49-5.349 17.754-13.512 2.721-9.81-3.026-19.969-12.837-22.691z" fill="#22a7ff"/></svg>