<svg height="496pt" viewBox="0 0 496 496.52" width="496pt" xmlns="http://www.w3.org/2000/svg"><path d="m344.261719 8c-79.523438 0-144 64.480469-144 144 0 21.121094 4.558593 41.121094 12.796875 59.199219l-15.117188 15.121093c-3.679687 3.679688-5.679687 8.558594-5.679687 13.679688s2 10 5.679687 13.679688l38.320313 38.320312 6.316406 6.320312c3.683594 3.679688 8.5625 5.679688 13.683594 5.679688 5.117187 0 10-2 13.679687-5.679688l15.117188-15.121093c11.042968 5.121093 22.882812 8.722656 35.203125 10.722656 7.757812 1.359375 15.839843 2.078125 24 2.078125 67.4375 0 124.078125-46.398438 139.679687-108.960938 2.796875-11.199218 4.320313-22.960937 4.320313-35.039062 0-79.519531-64.480469-144-144-144zm0 0" fill="#e6e9ed"/><path d="m320.261719 293.921875c7.757812 1.359375 15.839843 2.078125 24 2.078125 67.4375 0 124.078125-46.398438 139.679687-108.960938 2.878906 11.359376 4.320313 23.199219 4.320313 35.121094v48.078125c0 16.480469-6.5625 32.320313-18.320313 44.082031l-.402344.398438c-8.480468 8.480469-13.277343 20.082031-13.277343 32.160156v1.914063c.078125 12.320312 5.039062 24.238281 13.757812 32.960937.160157.167969.320313.316406.480469.484375 11.199219 11.121094 17.519531 26.234375 17.601562 42v1.914063c.078126 34.488281-27.921874 62.488281-62.402343 62.40625l-65.4375-.238282c-44.242188-.160156-80-36.082031-80-80.320312v-14.878906c0-21.191406 8.398437-41.511719 23.4375-56.554688l7.199219-7.199218c6-6.007813 9.363281-14.167969 9.363281-22.648438zm0 0" fill="#5cd6b3"/><path d="m320.261719 261.441406v-26.402344c0-11.359374-6-21.917968-15.839844-27.597656-19.84375-11.363281-33.042969-33.121094-32.082031-57.839844 1.199218-34.800781 31.519531-61.601562 66.320312-61.601562h37.359375c20.878907 0 41.121094 7.121094 57.441407 20.160156 7.4375 5.917969 14.160156 12.480469 20.160156 19.601563 1.757812 7.757812 2.640625 15.917969 2.640625 24.238281 0 61.839844-50.160157 112-112 112-8.242188 0-16.242188-.878906-24-2.558594zm0 0" fill="#5cd6b3"/><path d="m355.300781 379.039062c3.199219 3.199219 4.960938 7.519532 4.960938 12 0 4.640626-1.921875 8.960938-4.960938 12-3.039062 3.039063-7.359375 4.960938-12 4.960938-4.480469 0-8.800781-1.761719-12-4.960938l-14.082031-14.078124c-3.199219-3.199219-4.957031-7.519532-4.957031-12 0-4.640626 1.917969-8.960938 4.957031-12 3.042969-3.039063 7.359375-4.960938 12-4.960938 4.480469 0 8.800781 1.761719 12 4.960938zm0 0" fill="#fcd770"/><path d="m427.300781 412.960938c3.039063 3.039062 4.960938 7.359374 4.960938 12 0 4.480468-1.761719 8.800781-4.960938 12l-14.082031 14.078124c-3.199219 3.199219-7.519531 4.960938-12 4.960938-4.640625 0-8.957031-1.921875-12-4.960938-3.039062-3.039062-4.957031-7.359374-4.957031-12 0-4.480468 1.757812-8.800781 4.957031-12l14.082031-14.078124c3.199219-3.199219 7.519531-4.960938 12-4.960938 4.640625 0 8.960938 1.921875 12 4.960938zm0 0" fill="#fcd770"/><path d="m432.261719 328c0 8.835938-7.164063 16-16 16-8.839844 0-16-7.164062-16-16s7.160156-16 16-16c8.835937 0 16 7.164062 16 16zm0 0" fill="#fcd770"/><path d="m403.300781 179.039062-35.039062-35.039062-11.042969-11.039062c-3.199219-3.199219-7.519531-4.960938-12-4.960938-4.640625 0-8.957031 1.921875-12 4.960938-3.039062 3.039062-4.957031 7.359374-4.957031 12 0 4.480468 1.757812 8.800781 4.957031 12l11.042969 11.039062 35.039062 35.039062c3.199219 3.199219 7.519531 4.960938 12 4.960938 4.640625 0 8.960938-1.921875 12-4.960938 3.039063-3.039062 4.960938-7.359374 4.960938-12 0-4.480468-1.761719-8.800781-4.960938-12zm0 0" fill="#fcd770"/><path d="m180.09375 284.171875 24.164062-24.15625 31.996094 32.003906-24.164062 24.15625zm0 0" fill="#969faa"/><path d="m180.101562 284.160156 44 44-23.839843 23.839844-56-56 23.839843-23.839844zm0 0" fill="#ff826e"/><path d="m200.261719 352-124.402344 124.398438c-7.4375 7.441406-17.519531 11.601562-28 11.601562-10.960937 0-20.800781-4.480469-28-11.601562-7.121094-7.199219-11.597656-17.039063-11.597656-28 0-10.476563 4.160156-20.550782 11.597656-28l124.402344-124.398438zm0 0" fill="#fcd770"/><g fill="#1e1713"><path d="m496.261719 152c0-83.816406-68.1875-152-152-152-83.816407 0-152 68.183594-152 152 0 20.296875 4.070312 39.648438 11.328125 57.359375l-11.328125 11.328125c-5.160157 5.160156-8 12.015625-8 19.3125s2.839843 14.160156 8 19.3125l.6875.6875-12.839844 12.839844-12-12-153.90625 153.914062c-8.992187 8.980469-13.941406 20.933594-13.941406 33.652344 0 26.242188 21.351562 47.59375 47.597656 47.59375 12.710937 0 24.664063-4.945312 33.65625-13.9375l153.90625-153.910156-12-12 12.839844-12.832032.679687.679688c5.160156 5.160156 12.015625 8 19.320313 8 7.300781 0 14.160156-2.839844 19.308593-8l11.328126-11.320312c8.128906 3.328124 16.601562 5.984374 25.363281 7.863281v6.199219c0 6.417968-2.496094 12.449218-7.027344 16.976562l-7.199219 7.191406c-16.625 16.617188-25.773437 38.722656-25.773437 62.234375v14.855469c0 48.496094 39.460937 88.113281 87.972656 88.289062l65.425781.230469h.265625c18.71875 0 36.316407-7.289062 49.574219-20.535156 13.328125-13.320313 20.640625-31.03125 20.574219-49.839844v-1.914062c-.054688-18.015625-7.125-34.941407-20.375-48.140625-7.328125-7.296875-11.375-17-11.40625-27.3125v-1.929688c-.023438-10 3.855469-19.40625 11.335937-26.886718 13.304688-13.320313 20.632813-30.984376 20.632813-49.746094v-48.03125c0-11.917969-1.433594-23.824219-4.167969-35.414063 2.628906-11.183593 4.167969-22.792969 4.167969-34.769531zm-152-136c74.992187 0 136 61.007812 136 136s-61.007813 136-136 136c-74.992188 0-136-61.007812-136-136s61.007812-136 136-136zm-274.058594 454.753906c-5.96875 5.957032-13.902344 9.246094-22.34375 9.246094-17.421875 0-31.597656-14.167969-31.597656-31.59375 0-8.445312 3.285156-16.375 9.253906-22.34375l118.746094-118.75 44.6875 44.6875zm130.058594-130.066406-44.691407-44.6875 12.539063-12.535156 44.6875 44.6875zm11.847656-35.847656-20.6875-20.6875 12.839844-12.839844 20.6875 20.6875zm52.152344-12.152344c-4.265625 4.28125-11.722657 4.28125-16 0l-44.691407-44.6875c-2.101562-2.105469-3.308593-5.023438-3.308593-8s1.207031-5.894531 3.308593-8l7.265626-7.265625c13.992187 25.570313 35.121093 46.699219 60.6875 60.691406zm216-70.503906v48.03125c0 14.488281-5.664063 28.128906-16.363281 38.832031-10.109376 10.113281-15.65625 23.546875-15.613282 37.863281v1.882813c.039063 14.597656 5.765625 28.320312 16.582032 39.09375 9.761718 9.714843 15.160156 22.632812 15.199218 36.359375v1.914062c.042969 14.542969-5.597656 28.214844-15.886718 38.503906-10.28125 10.273438-23.855469 16.230469-38.472657 15.847657l-65.414062-.230469c-39.722657-.136719-72.03125-32.570312-72.03125-72.28125v-14.855469c0-19.234375 7.484375-37.3125 21.085937-50.914062l7.199219-7.191407c7.554687-7.558593 11.714844-17.605468 11.714844-28.296874v-3.597657c5.261719.550781 10.589843.855469 16 .855469 59.496093 0 110.972656-34.449219 135.917969-84.367188.015624.855469.082031 1.703126.082031 2.550782zm0 0"/><path d="m344.261719 272c66.167969 0 120-53.832031 120-120s-53.832031-120-120-120-120 53.832031-120 120 53.832031 120 120 120zm0-16c-5.457031 0-10.769531-.550781-16-1.359375v-19.625c0-14.246094-7.609375-27.472656-19.851563-34.496094-18.09375-10.382812-28.871094-29.785156-28.109375-50.617187 1.078125-29.726563 27.261719-53.902344 58.351563-53.902344h37.335937c18.992188 0 37.625 6.535156 52.464844 18.40625 6.414063 5.128906 12.335937 10.921875 17.75 17.128906 1.335937 6.617188 2.058594 13.457032 2.058594 20.464844 0 57.34375-46.65625 104-104 104zm0-208c37.476562 0 70.292969 20 88.597656 49.816406-16.648437-11.503906-36.566406-17.816406-56.863281-17.816406h-37.335938c-39.601562 0-72.953125 31.097656-74.34375 69.3125-.976562 26.792969 12.871094 51.726562 36.136719 65.078125 7.277344 4.183594 11.808594 12.089844 11.808594 20.625v15.894531c-41.730469-13.535156-72-52.726562-72-98.910156 0-57.34375 46.652343-104 104-104zm0 0"/><path d="m362.882812 127.3125c-4.710937-4.710938-10.984374-7.3125-17.65625-7.3125-3.957031 0-7.664062 1.015625-10.992187 2.664062l-16.320313-16.320312-11.308593 11.3125 16.320312 16.320312c-1.648437 3.328126-2.664062 7.03125-2.664062 10.992188 0 6.671875 2.597656 12.941406 7.308593 17.65625l46.066407 46.0625c4.710937 4.710938 10.984375 7.3125 17.65625 7.3125 13.765625 0 24.96875-11.199219 24.96875-24.96875 0-6.671875-2.601563-12.941406-7.3125-17.65625zm18.066407 40.6875-12.6875 12.6875-12.691407-12.6875 12.691407-12.6875zm-35.722657-32c2.402344 0 4.648438.9375 6.34375 2.625l5.378907 5.375-12.6875 12.6875-5.378907-5.375c-1.6875-1.695312-2.621093-3.945312-2.621093-6.34375 0-4.945312 4.023437-8.96875 8.964843-8.96875zm46.066407 64c-2.402344 0-4.648438-.9375-6.34375-2.625l-5.378907-5.375 12.691407-12.6875 5.375 5.375c1.6875 1.695312 2.625 3.945312 2.625 6.34375 0 4.945312-4.027344 8.96875-8.96875 8.96875zm0 0"/><path d="m338.601562 234.34375 15.996094-16 11.3125 11.316406-15.996094 15.996094zm0 0"/><path d="m416.261719 304c-13.234375 0-24 10.769531-24 24s10.765625 24 24 24c13.230469 0 24-10.769531 24-24s-10.769531-24-24-24zm0 32c-4.410157 0-8-3.585938-8-8s3.589843-8 8-8c4.40625 0 8 3.585938 8 8s-3.59375 8-8 8zm0 0"/><path d="m415.292969 400c-6.671875 0-12.945313 2.59375-17.65625 7.3125l-14.066407 14.0625c-4.644531 4.648438-7.308593 11.082031-7.308593 17.65625 0 13.769531 11.199219 24.96875 24.964843 24.96875 6.671876 0 12.945313-2.59375 17.65625-7.3125l14.066407-14.0625c4.648437-4.648438 7.3125-11.082031 7.3125-17.65625 0-13.769531-11.203125-24.96875-24.96875-24.96875zm6.34375 31.3125-14.066407 14.0625c-1.695312 1.695312-3.941406 2.625-6.34375 2.625-4.941406 0-8.964843-4.023438-8.964843-8.96875 0-2.359375.957031-4.671875 2.621093-6.34375l14.066407-14.0625c1.695312-1.695312 3.941406-2.625 6.34375-2.625 4.941406 0 8.96875 4.023438 8.96875 8.96875 0 2.359375-.960938 4.671875-2.625 6.34375zm0 0"/><path d="m346.882812 359.3125c-4.710937-4.71875-10.984374-7.3125-17.65625-7.3125-13.765624 0-24.964843 11.199219-24.964843 24.96875 0 6.574219 2.664062 13.007812 7.308593 17.65625l14.066407 14.0625c4.710937 4.71875 10.984375 7.3125 17.65625 7.3125 13.765625 0 24.96875-11.199219 24.96875-24.96875 0-6.574219-2.664063-13.007812-7.3125-17.65625zm-3.589843 40.6875c-2.402344 0-4.648438-.929688-6.34375-2.625l-14.066407-14.0625c-1.664062-1.671875-2.621093-3.984375-2.621093-6.34375 0-4.945312 4.023437-8.96875 8.964843-8.96875 2.402344 0 4.648438.929688 6.34375 2.625l14.066407 14.0625c1.664062 1.671875 2.625 3.984375 2.625 6.34375 0 4.945312-4.027344 8.96875-8.96875 8.96875zm0 0"/><path d="m354.601562 330.34375 15.996094-16 11.3125 11.3125-15.996094 16zm0 0"/><path d="m434.601562 290.34375 15.996094-16 11.3125 11.316406-15.996094 15.996094zm0 0"/><path d="m378.597656 373.65625 11.316406-11.3125 15.996094 16-11.3125 11.3125zm0 0"/><path d="m442.597656 450.34375 15.996094-16 11.316406 11.3125-16 16zm0 0"/><path d="m378.601562 125.660156 11.3125-11.3125 15.996094 15.996094-11.3125 11.3125zm0 0"/><path d="m410.601562 146.34375 15.996094-15.996094 11.3125 11.3125-15.996094 15.996094zm0 0"/><path d="m289.09375 147.578125 14.3125-7.15625 8 16-14.3125 7.15625zm0 0"/></g></svg>