<svg height="512" viewBox="0 0 58 58" width="512" xmlns="http://www.w3.org/2000/svg"><g id="037---Aquarium" fill="none"><path id="Rectangle-path" d="m2 4h54v50h-54z" fill="#2fa8cc"/><path id="Rectangle-path" d="m2 51h54v3h-54z" fill="#3b97d3"/><path id="Rectangle-path" d="m2 4h54v3h-54z" fill="#3b97d3"/><rect id="Rectangle-path" fill="#35495e" height="5" rx="2" width="58" y="53"/><rect id="Rectangle-path" fill="#35495e" height="5" rx="2" width="58"/><path id="Shape" d="m18.86 20.14 4.21-4.21c1.8749273-1.8754937 4.4180519-2.9294336 7.07-2.93h7.36c2.8407904 0 5.4377638 1.6050178 6.7082039 4.145898s.9962704 5.5814696-.7082039 7.854102l-.12.16z" fill="#f3d55b"/><path id="Shape" d="m45.5 29.42 3.6-1.29c.6992593-.2908245 1.5007466-.1845924 2.1000982.278355.5993515.4629474.9046283 1.2115951.7999018 1.961645l-.4 2.3c-.04.2181818-.04.4418182 0 .66l.4 2.3c.0989766.7423059-.2029182 1.4814573-.7932685 1.9422185-.5903503.4607613-1.3806934.5740881-2.0767315.2977815l-3.6-1.29z" fill="#f3d55b"/><g fill="#67b9cc"><path id="Shape" d="m6 22c-.26580298.0015368-.52128117-.1028135-.71-.29-.18931265-.1877666-.29579832-.4433625-.29579832-.71s.10648567-.5222334.29579832-.71l11-11c.3921222-.39212217 1.0278778-.39212217 1.42 0s.3921222 1.0278778 0 1.42l-11 11c-.18871883.1871865-.44419702.2915368-.71.29z"/><path id="Shape" d="m6 15c-.26580298.0015368-.52128117-.1028135-.71-.29-.18931265-.1877666-.29579832-.4433625-.29579832-.71s.10648567-.5222334.29579832-.71l4-4c.39212218-.39212215 1.0278778-.39212213 1.42.00000003.3921221.39212216.3921221 1.02787777 0 1.41999997l-4 4c-.18871883.1871865-.44419702.2915368-.71.29z"/><path id="Shape" d="m43 49c-.265803.0015368-.5212812-.1028135-.71-.29-.1893127-.1877666-.2957983-.4433625-.2957983-.71s.1064856-.5222334.2957983-.71l5-5c.2536586-.2536586.623374-.3527235.969878-.259878.3465041.0928454.6171546.3634959.71.71.0928455.346504-.0062194.7162194-.259878.969878l-5 5c-.1887188.1871865-.444197.2915368-.71.29z"/><path id="Shape" d="m49 50c-.265803.0015368-.5212812-.1028135-.71-.29-.1893127-.1877666-.2957983-.4433625-.2957983-.71s.1064856-.5222334.2957983-.71l3-3c.3921222-.3921222 1.0278778-.3921222 1.42 0s.3921222 1.0278778 0 1.42l-3 3c-.1887188.1871865-.444197.2915368-.71.29z"/><path id="Shape" d="m48 14c-.265803.0015368-.5212812-.1028135-.71-.29-.1893127-.1877666-.2957983-.4433625-.2957983-.71s.1064856-.5222334.2957983-.71l3-3c.3921222-.39212214 1.0278778-.39212212 1.42.00000004.3921221.39212215.3921221 1.02787776 0 1.41999996l-3 3c-.1887188.1871865-.444197.2915368-.71.29z"/><path id="Shape" d="m6 50c-.26580298.0015368-.52128117-.1028135-.71-.29-.18931265-.1877666-.29579832-.4433625-.29579832-.71s.10648567-.5222334.29579832-.71l3-3c.39212218-.3921221 1.02787781-.3921221 1.41999996 0 .39212214.3921222.39212214 1.0278778.00000004 1.42l-3 3c-.18871883.1871865-.44419702.2915368-.71.29z"/></g><path id="Shape" d="m33.06 46h-12.56c-2.7797143-.0039984-5.4307574-1.1717629-7.31-3.22l-5.87-6.39c-1.76625399-1.9149056-1.76625399-4.8650944 0-6.78l5.87-6.39c1.8792426-2.0482371 4.5302857-3.2160016 7.31-3.22h12.56c7.1562592.0330292 12.9400762 5.8436646 12.94 13 .0000762 7.1563354-5.7837408 12.9669708-12.94 13z" fill="#f0c419"/><path id="Shape" d="m20 43c-.3345191-.0017306-.6460165-.1706148-.83-.45-.2985386-.4517436-.1832852-1.0590405.26-1.37.07-.06 2.57-2 2.57-8.18s-2.54-8.16-2.57-8.18c-.445992-.3146808-.5572566-.9288611-.25-1.38.3078264-.4467176.9156967-.5665168 1.37-.27.15.09 3.45 2.38 3.45 9.83s-3.3 9.74-3.45 9.83c-.1610428.112792-.3533994.1722477-.55.17z" fill="#f29c1f"/><circle id="Oval" cx="16" cy="30" fill="#35495e" r="2"/><path id="Shape" d="m28 39c-.3572656.016077-.6959696-.1596663-.8885254-.4610289s-.2097098-.6825604-.045-1c.1647097-.3174395.4862598-.5228941.8435254-.5389711l7.52-.68c1.4656214-.123537 2.5923027-1.3491814 2.5923027-2.82s-1.1266813-2.696463-2.5923027-2.82l-7.52-.68c-.5522847-.0497056-.9597056-.5377153-.91-1.09s.5377153-.9597056 1.09-.91l7.52.69c2.4870563.2270356 4.39091 2.3126025 4.39091 4.81s-1.9038537 4.5829644-4.39091 4.81l-7.52.69z" fill="#f29c1f"/></g></svg>