<svg enable-background="new 0 0 58 58" height="512" viewBox="0 0 58 58" width="512" xmlns="http://www.w3.org/2000/svg"><path d="m57.121 52.879-14.121-14.122c-1.24 1.578-2.664 3.003-4.243 4.243l14.121 14.121c1.172 1.172 3.071 1.172 4.243 0s1.172-3.071 0-4.242z" fill="#556080"/><circle cx="25" cy="25" fill="#7383bf" r="25"/><circle cx="25" cy="25" fill="#fff" r="19"/><circle cx="35" cy="24" fill="#25ae88" r="4"/><path d="m16 27h-4c-.552 0-1-.448-1-1s.448-1 1-1h4c.552 0 1 .448 1 1s-.448 1-1 1z" fill="#f7b563"/><path d="m31 39c-.552 0-1-.448-1-1s.448-1 1-1 1-.449 1-1c0-.552.448-1 1-1s1 .448 1 1c0 1.654-1.346 3-3 3z" fill="#366db6"/><path d="m25 31c-.552 0-1-.448-1-1 0-1.654-1.346-3-3-3-.552 0-1-.448-1-1s.448-1 1-1c2.757 0 5 2.243 5 5 0 .552-.448 1-1 1z" fill="#cc4b4c"/><path d="m25 36h-6c-.552 0-1-.448-1-1s.448-1 1-1h6c.552 0 1 .448 1 1s-.448 1-1 1z" fill="#bf4d90"/><circle cx="18" cy="16" fill="#75348b" r="3"/><path d="m27 19c-.552 0-1-.448-1-1 0-1.654 1.346-3 3-3 .552 0 1 .448 1 1s-.448 1-1 1-1 .449-1 1c0 .552-.448 1-1 1z" fill="#ed8a19"/></svg>